<svg xmlns="http://www.w3.org/2000/svg" xmlns:xlink="http://www.w3.org/1999/xlink" width="343" height="174.415" viewBox="0 0 343 174.415"><defs><clipPath id="a"><rect width="342.999" height="174.415" fill="none"/></clipPath><filter id="b" x="-15.501" y="-12.501" width="374.017" height="205.48" filterUnits="userSpaceOnUse"><feOffset dy="3" input="SourceAlpha"/><feGaussianBlur stdDeviation="5" result="c"/><feFlood flood-opacity="0.271"/><feComposite operator="in" in2="c"/><feComposite in="SourceGraphic"/></filter></defs><g transform="translate(0 0)" clip-path="url(#a)"><g transform="matrix(1, 0, 0, 1, 0, 0)" filter="url(#b)"><path d="M.017,107.277c.044,1.249.136,2.546.307,3.866.547,4.322,7.364,13.429,23.138,19.528,18.939,7.314,42.416,10.378,58.6-1.878-1.229,10.554,10.585,17.371,20.457,21.244,10.513,4.094,21.236,8.24,32.489,8.726s23.338-3.364,29.918-12.5c9.268,16.148,32.9,21.842,48.491,11.7,9.556,13.7,28.58,19.93,44.381,14.513,15.8-5.391,27.028-21.965,26.193-38.648,8.781,4.8,21.406-3.422,20.565-13.412,8.6,7.822,23.44,6,31.31-2.552s9-21.971,4.528-32.69a44.688,44.688,0,0,0-14.479-18.011,24.712,24.712,0,0,0-.629-7.926,22.053,22.053,0,0,0-3.2-7.165A23.869,23.869,0,0,0,294.7,43.591c3.867-12.046-5.644-26.408-18.232-27.558-12.183-1.112-23.737,10.459-23.009,22.579-.6-5.543-5.131-9.779-9.71-13.049-10.721-7.659-19.781-.686-21.871.151C218.8,10.824,204.748-.578,184.145.023S150.481,14.267,149.52,27.809c-4.916-7-15.582-9.163-22.838-4.622-7.232,4.559-9.948,15.1-5.762,22.569a46.232,46.232,0,0,0-47.091-9.507,46.21,46.21,0,0,0-29.044,38.28C30.642,70.187-.837,78.8.017,107.277" transform="translate(0 0)" fill="#fff" stroke="#46a7ff" stroke-width="1"/></g><path d="M174.66,78.359a24.513,24.513,0,0,0-14.835,3.9,4.232,4.232,0,0,1-2.577.936c-1.063-.121-1.817-1.05-2.549-1.831-4.015-4.281-10.449-5.571-16.259-4.742S127.259,80.1,122,82.716c.809-5.836,1.844-12.133,6.08-16.227a15.453,15.453,0,0,1,14.264-3.468,21.277,21.277,0,0,1,12.1,8.841c.857,1.252,1.83,2.725,3.342,2.845a5.137,5.137,0,0,0,2.675-.861,27.7,27.7,0,0,1,40.089,19.629c-.9-4.962-21.369-14.724-25.9-15.116" transform="translate(56.434 28.931)" fill="#fff"/><path d="M340.386,68.7a44.689,44.689,0,0,0-14.479-18.011c-8.784-5.986-16.65-5.21-23.307-1.444,19.916,8.012,16.657,29.77,16.657,29.77-5.524-16.145-14.185-20.941-21.8-23.366-8.294-2.643-16.9-.459-21.856,4.936-3.684,4.009-4.13,10.308-2.542,15.573C259.21,61.4,244.589,60.619,238.348,64.917c13.869,3.017,17.125,15.923,17.125,15.923-35.855-17.511-55.985.474-55.985.474s1.338-17.763,25.69-18.5C223.849,50.189,215.138,36.6,200.3,35.676c-18.317-1.126-33.44,11.926-32.713,31.5-6.548-1.461-13.347,5.667-11.588,12.141-4.538-3.58-9.359-7.305-15.073-8.236s-12.5,2.059-13.682,7.728c-8,.8-14.567,8.775-13.785,16.776C102.65,85.345,84.968,83.221,72.04,90.623c6.232-18.709,30.241-29.051,48.136-20.751C119.761,56.7,106.731,45.34,93.625,46.719c-13.094,1.4-23.468,15.25-21.1,28.211-9.39-2.95-20.1,7.063-17.772,16.628C51.044,79.3,36.939,76.264,28.64,78.516,40.311,81.59,45.033,95.8,43.548,105.729c-3.8-9-15.491-27.606-43.536-14.923.042,1.249.135,2.546.306,3.866C.866,98.993,7.683,108.1,23.457,114.2c18.937,7.314,42.416,10.378,58.595-1.878-1.227,10.554,10.586,17.371,20.458,21.244,10.511,4.094,21.236,8.24,32.489,8.726s23.338-3.364,29.918-12.5c9.268,16.148,32.9,21.842,48.49,11.7,9.558,13.7,28.58,19.93,44.381,14.513,15.8-5.391,27.03-21.965,26.194-38.648,8.781,4.8,21.406-3.422,20.565-13.412,8.6,7.822,23.44,6,31.31-2.552s9-21.971,4.528-32.69" transform="translate(0.006 16.471)" fill="#91c6f6" stroke="#46a7ff" stroke-width="1"/></g></svg>