<svg width="800" height="800" viewBox="0 0 800 800" fill="none" xmlns="http://www.w3.org/2000/svg">
<g clip-path="url(#clip0_205_104)">
<path d="M706.25 187.5H587.5C587.5 83.9469 503.553 0 400 0C296.447 0 212.5 83.9469 212.5 187.5H93.75C41.9734 187.5 0 229.473 0 281.25V706.25C0 758.027 41.9734 800 93.75 800H706.25C758.027 800 800 758.027 800 706.25V281.25C800 229.473 758.027 187.5 706.25 187.5ZM400 93.75C451.777 93.75 493.75 135.723 493.75 187.5H306.25C306.25 135.723 348.223 93.75 400 93.75ZM628.125 406.25V437.5C628.125 463.389 607.139 484.375 581.25 484.375C555.361 484.375 534.375 463.389 534.375 437.5V406.25H265.625V437.5C265.625 463.389 244.639 484.375 218.75 484.375C192.861 484.375 171.875 463.389 171.875 437.5V406.25C145.986 406.25 125 385.264 125 359.375C125 333.486 145.986 312.5 171.875 312.5H628.125C654.014 312.5 675 333.486 675 359.375C675 385.264 654.014 406.25 628.125 406.25Z" fill="white"/>
</g>
<defs>
<clipPath id="clip0_205_104">
<rect width="800" height="800" fill="white"/>
</clipPath>
</defs>
</svg>
